<svg width="212" height="40" viewBox="0 0 212 40" fill="none" xmlns="http://www.w3.org/2000/svg">
<g clip-path="url(#clip0_4577_34862)">
<path d="M188.792 21.8621C190.056 21.0324 191.611 20.5326 193.46 20.3626L195.699 20.1727C196.164 20.1327 196.499 20.0277 196.709 19.8578C196.919 19.6879 197.024 19.438 197.024 19.1031C197.024 18.6833 196.819 18.3334 196.409 18.0635C195.999 17.7886 195.479 17.6536 194.85 17.6536C194.135 17.6536 193.565 17.8436 193.145 18.2234C192.725 18.6033 192.47 19.0981 192.39 19.7079L187.372 18.6333C187.477 17.7286 187.842 16.8889 188.462 16.1092C189.082 15.3295 189.936 14.7097 191.016 14.2499C192.101 13.7851 193.355 13.5552 194.785 13.5552C196.974 13.5552 198.733 14.12 200.068 15.2445C201.402 16.3691 202.072 18.0285 202.072 20.2127V30.2789H197.024V28.6695C196.499 29.2393 195.819 29.6991 194.989 30.059C194.16 30.4189 193.26 30.5938 192.291 30.5938C190.736 30.5938 189.447 30.159 188.427 29.2843C187.407 28.4096 186.898 27.25 186.898 25.7956C186.898 24.0063 187.527 22.6967 188.792 21.8671V21.8621ZM192.375 26.2954C192.66 26.5253 193.065 26.6403 193.59 26.6403C194.16 26.6403 194.71 26.4953 195.244 26.2004C195.779 25.9055 196.214 25.5207 196.539 25.0509C196.864 24.576 197.029 24.0862 197.029 23.5814V23.4865C196.819 23.5914 196.429 23.6764 195.859 23.7414L193.43 24.0262C192.945 24.0912 192.58 24.2412 192.325 24.4861C192.071 24.731 191.946 25.0159 191.946 25.3558C191.946 25.7556 192.086 26.0705 192.37 26.3004L192.375 26.2954Z" fill="#39BDEE"/>
<path d="M206.43 25.4755C207.02 24.8858 207.725 24.5909 208.545 24.5909C209.364 24.5909 210.069 24.8858 210.659 25.4755C211.249 26.0653 211.543 26.77 211.543 27.5897C211.543 28.4094 211.249 29.0892 210.659 29.689C210.069 30.2887 209.364 30.5886 208.545 30.5886C207.725 30.5886 207.02 30.2887 206.43 29.689C205.841 29.0892 205.546 28.3894 205.546 27.5897C205.546 26.79 205.841 26.0653 206.43 25.4755ZM205.706 13.8649V8.18701H211.383V13.8649L210.439 23.3313H206.65L205.706 13.8649Z" fill="#39BDEE"/>
<path d="M35.1244 26.6405C35.8391 26.6405 36.4089 26.5105 36.8288 26.2456C37.2486 25.9857 37.4585 25.6709 37.4585 25.316C37.4585 24.8962 37.2136 24.5913 36.7188 24.4013C36.224 24.2114 35.4593 24.0565 34.4297 23.9265C33.1451 23.7366 32.0955 23.5117 31.2758 23.2468C30.4562 22.9819 29.7364 22.512 29.1167 21.8273C28.4969 21.1426 28.187 20.1579 28.187 18.8784C28.187 17.8888 28.4919 16.9841 29.1017 16.1644C29.7114 15.3447 30.5461 14.705 31.6107 14.2401C32.6753 13.7803 33.8449 13.5454 35.1294 13.5454C37.1287 13.5454 38.778 13.9752 40.0825 14.8399C41.3871 15.7046 42.1568 16.8692 42.3867 18.3436L37.3686 19.4182C37.2836 18.7635 37.0487 18.2836 36.6588 17.9688C36.269 17.6539 35.7592 17.4939 35.1294 17.4939C34.6046 17.4939 34.1598 17.6039 33.8049 17.8238C33.45 18.0437 33.2701 18.3236 33.2701 18.6585C33.2701 19.1233 33.515 19.4482 34.0098 19.6381C34.5046 19.8281 35.2993 20.018 36.3939 20.2079C37.6335 20.3978 38.6731 20.6278 39.5028 20.9027C40.3325 21.1775 41.0472 21.6574 41.647 22.3371C42.2467 23.0219 42.5466 23.9965 42.5466 25.256C42.5466 26.2456 42.2167 27.1453 41.552 27.955C40.8872 28.7647 39.9926 29.4045 38.853 29.8793C37.7184 30.3541 36.4739 30.589 35.1294 30.589C33.0452 30.589 31.3458 30.1592 30.0313 29.2945C28.7168 28.4298 27.9421 27.2653 27.7122 25.7908L32.7303 24.7162C32.8752 26.0007 33.6749 26.6405 35.1294 26.6405H35.1244Z" fill="#206783"/>
<path d="M45.2557 17.7437C46.0105 16.4392 47.0551 15.4146 48.3796 14.6699C49.7041 13.9252 51.1785 13.5503 52.7979 13.5503C54.4173 13.5503 55.9217 13.9301 57.2463 14.6849C58.5708 15.4396 59.6054 16.4742 60.3551 17.7787C61.0998 19.0832 61.4747 20.5127 61.4747 22.0721C61.4747 22.6619 61.4097 23.2716 61.2847 23.9014H49.3892C49.6841 24.6361 50.1639 25.2209 50.8237 25.6508C51.4884 26.0806 52.2481 26.2955 53.1128 26.2955C53.8475 26.2955 54.5173 26.1356 55.117 25.8207C55.7168 25.5058 56.1966 25.051 56.5515 24.4662L60.655 26.3605C59.8753 27.645 58.8257 28.6696 57.5012 29.4393C56.1767 30.209 54.6622 30.5889 52.9579 30.5889C51.2535 30.5889 49.824 30.214 48.4795 29.4693C47.135 28.7246 46.0704 27.695 45.2907 26.3905C44.511 25.086 44.1212 23.6465 44.1212 22.0671C44.1212 20.4877 44.501 19.0482 45.2557 17.7437ZM56.1717 20.1128C55.8768 19.3981 55.4419 18.8383 54.8621 18.4385C54.2824 18.0386 53.5926 17.8387 52.7929 17.8387C52.0582 17.8387 51.3934 18.0436 50.8037 18.4535C50.2139 18.8633 49.7641 19.4181 49.4492 20.1078H56.1717V20.1128Z" fill="#206783"/>
<path d="M64.3736 17.6038C65.0483 16.3542 65.978 15.3646 67.1675 14.6399C68.3571 13.9152 69.6666 13.5503 71.0961 13.5503C72.9454 13.5503 74.5148 14.1601 75.7993 15.3796V13.8652H80.8474V28.3797C80.8474 29.9591 80.4576 31.3986 79.6779 32.7031C78.8981 34.0076 77.8385 35.0322 76.489 35.782C75.1445 36.5267 73.6501 36.9015 72.0107 36.9015C70.3713 36.9015 68.8569 36.5117 67.5324 35.732C66.2079 34.9523 65.1783 33.9227 64.4386 32.6381L68.9169 30.209C69.6316 31.6185 70.6612 32.3233 72.0107 32.3233C73.0603 32.3233 73.955 31.9484 74.6947 31.2037C75.4344 30.459 75.7993 29.5143 75.7993 28.3797V28.1248C74.5148 29.3444 72.9504 29.9541 71.0961 29.9541C69.6666 29.9541 68.3571 29.5893 67.1675 28.8645C65.978 28.1398 65.0483 27.1502 64.3736 25.9007C63.6988 24.6511 63.364 23.2666 63.364 21.7522C63.364 20.2378 63.6988 18.8533 64.3736 17.6038ZM69.6266 24.3213C70.3114 25.006 71.166 25.3459 72.2007 25.3459C73.2353 25.3459 74.0899 25.006 74.7697 24.3213C75.4544 23.6365 75.7943 22.7818 75.7943 21.7472C75.7943 20.7126 75.4544 19.8579 74.7697 19.1782C74.085 18.4984 73.2303 18.1536 72.2007 18.1536C71.171 18.1536 70.3114 18.4934 69.6266 19.1782C68.9419 19.8629 68.602 20.7176 68.602 21.7472C68.602 22.7768 68.9419 23.6365 69.6266 24.3213Z" fill="#206783"/>
<path d="M88.8892 13.8647V23.2662C88.8892 24.0859 89.1441 24.7457 89.6639 25.2405C90.1837 25.7353 90.8685 25.9802 91.7332 25.9802C92.5978 25.9802 93.2326 25.7353 93.7674 25.2405C94.3022 24.7457 94.5721 24.0909 94.5721 23.2662V13.8647H99.6202V23.2662C99.6202 24.6957 99.2853 25.9652 98.6106 27.0698C97.9358 28.1744 97.0012 29.0391 95.8016 29.6588C94.6021 30.2786 93.2476 30.5885 91.7332 30.5885C90.2187 30.5885 88.8343 30.2836 87.6447 29.6738C86.4551 29.064 85.5255 28.2044 84.8507 27.0848C84.176 25.9702 83.8411 24.6957 83.8411 23.2662V13.8647H88.8892Z" fill="#206783"/>
<path d="M102.619 13.8653H107.667V15.8196C108.212 15.1048 108.862 14.545 109.606 14.1452C110.351 13.7453 111.126 13.5454 111.926 13.5454C112.515 13.5454 113.06 13.6504 113.565 13.8603V18.5935C112.7 18.2387 111.861 18.0587 111.041 18.0587C110.011 18.0587 109.192 18.3386 108.582 18.8934C107.972 19.4532 107.667 20.2029 107.667 21.1476V30.2691H102.619V13.8653Z" fill="#206783"/>
<path d="M116.089 21.8623C117.354 21.0326 118.908 20.5328 120.757 20.3629L122.996 20.1729C123.461 20.1329 123.796 20.028 124.006 19.858C124.216 19.6881 124.321 19.4382 124.321 19.0983C124.321 18.6785 124.116 18.3286 123.706 18.0587C123.296 17.7838 122.777 17.6489 122.142 17.6489C121.427 17.6489 120.857 17.8388 120.437 18.2187C120.018 18.5985 119.763 19.0933 119.683 19.7031L114.665 18.6285C114.77 17.7238 115.134 16.8842 115.754 16.1045C116.374 15.3247 117.229 14.705 118.308 14.2401C119.393 13.7803 120.647 13.5454 122.077 13.5454C124.266 13.5454 126.025 14.1102 127.36 15.2348C128.694 16.3594 129.364 18.0187 129.364 20.2029V30.2691H124.316V28.6597C123.791 29.2295 123.111 29.6894 122.282 30.0492C121.452 30.4091 120.552 30.584 119.583 30.584C118.023 30.584 116.739 30.1492 115.719 29.2745C114.7 28.3998 114.19 27.2403 114.19 25.7858C114.19 23.9965 114.82 22.687 116.084 21.8573L116.089 21.8623ZM119.673 26.2956C119.958 26.5255 120.362 26.6405 120.887 26.6405C121.457 26.6405 122.007 26.4956 122.542 26.2007C123.076 25.9058 123.511 25.5209 123.836 25.0511C124.161 24.5763 124.326 24.0865 124.326 23.5816V23.4867C124.116 23.5916 123.726 23.6766 123.156 23.7416L120.727 24.0265C120.242 24.0915 119.878 24.2414 119.623 24.4863C119.368 24.7312 119.243 25.0161 119.243 25.356C119.243 25.7558 119.383 26.0707 119.668 26.3006L119.673 26.2956Z" fill="#206783"/>
<path d="M130.319 13.8649H133.473V9.4466L138.521 7.86719V13.8599H142.464V18.2783H138.521V23.9562C138.521 25.2207 139.15 25.8504 140.415 25.8504H142.464V30.2688H140.415C138.061 30.2688 136.311 29.724 135.177 28.6294C134.042 27.5348 133.473 25.8754 133.473 23.6463V18.2833H130.319V13.8649Z" fill="#206783"/>
<path d="M144.868 17.7437C145.628 16.4392 146.668 15.4146 147.992 14.6699C149.317 13.9252 150.791 13.5503 152.411 13.5503C154.03 13.5503 155.534 13.9301 156.859 14.6849C158.183 15.4396 159.218 16.4742 159.968 17.7787C160.712 19.0832 161.087 20.5127 161.087 22.0721C161.087 22.6619 161.022 23.2716 160.897 23.9014H149.002C149.297 24.6361 149.777 25.2209 150.436 25.6508C151.101 26.0806 151.861 26.2955 152.725 26.2955C153.46 26.2955 154.13 26.1356 154.73 25.8207C155.329 25.5058 155.809 25.051 156.164 24.4662L160.268 26.3605C159.488 27.645 158.438 28.6696 157.114 29.4393C155.789 30.209 154.275 30.5889 152.571 30.5889C150.866 30.5889 149.437 30.214 148.092 29.4693C146.748 28.7246 145.683 27.695 144.903 26.3905C144.124 25.086 143.734 23.6465 143.734 22.0671C143.734 20.4877 144.114 19.0482 144.868 17.7437ZM155.784 20.1128C155.489 19.3981 155.055 18.8383 154.475 18.4385C153.895 18.0386 153.205 17.8387 152.406 17.8387C151.671 17.8387 151.006 18.0436 150.416 18.4535C149.827 18.8633 149.377 19.4181 149.062 20.1078H155.784V20.1128Z" fill="#206783"/>
<path d="M168.36 13.8649H165.925C165.566 13.8649 165.226 14.0548 165.036 14.3647C164.841 14.6796 164.831 15.0644 164.996 15.3893L166.795 18.898L169.889 24.9407L170.504 26.1353L169.929 27.2598L169.349 28.3944L168.285 30.4686L167.735 31.5382L167.695 31.6182L166.19 34.5521C166.11 34.707 166.115 34.897 166.21 35.0469C166.3 35.1969 166.465 35.2868 166.64 35.2868H169.979L174.552 26.0953L168.36 13.8599V13.8649Z" fill="#206783"/>
<path d="M186.628 14.3597C186.438 14.0498 186.103 13.8599 185.738 13.8599H168.36L174.552 26.0953L169.979 35.2868H176.212C176.387 35.2868 176.552 35.1969 176.642 35.0469C176.692 34.967 176.712 34.882 176.717 34.792C176.732 34.767 176.756 34.742 176.771 34.717L178.936 30.4886L180.14 28.1395L182.339 23.8411L183.474 21.627L183.559 21.462L186.673 15.3843C186.843 15.0594 186.823 14.6696 186.633 14.3597H186.628Z" fill="#39BDEE"/>
<path d="M14.5773 5.09306C14.3624 4.66822 13.9225 4.40332 13.4477 4.40332C12.9729 4.40332 12.543 4.66822 12.3181 5.09306L9.69911 10.2111L8.24465 13.0551L5.58065 18.2531L4.20616 20.9371L4.1062 21.137L0.342612 28.4893C0.137689 28.8841 0.157682 29.354 0.392594 29.7338C0.622508 30.1087 1.02736 30.3386 1.47219 30.3386H4.46607L15.9867 7.84203L14.5823 5.09806L14.5773 5.09306Z" fill="#206783"/>
<path d="M26.5676 28.4892L24.3884 24.2408L20.6448 16.9335L18.7555 13.2449L16.8962 9.61625L15.9866 7.83691L4.4659 30.3335H25.443C25.8829 30.3335 26.2927 30.1036 26.5226 29.7287C26.7575 29.3488 26.7675 28.879 26.5726 28.4842L26.5676 28.4892Z" fill="#39BDEE"/>
<path d="M2.50267 28.3304C2.22211 28.7151 2.1863 29.2273 2.4023 29.6501C2.61831 30.0729 3.04975 30.3352 3.5304 30.3423L9.27966 30.3463L12.4739 30.3477L5.81957 30.3685L8.83503 30.3715L9.05855 30.3695L25.4781 30.3765C25.923 30.3793 26.3323 30.1478 26.5637 29.7658C26.7929 29.3905 26.8135 28.9254 26.6111 28.5293L25.1676 25.7001L4.30952 25.6616L2.50485 28.3237L2.50267 28.3304Z" fill="#206783"/>
</g>
<defs>
<clipPath id="clip0_4577_34862">
<rect width="211.5" height="40" fill="white" transform="translate(0.25)"/>
</clipPath>
</defs>
</svg>
