<svg width="20" height="20" viewBox="0 0 20 20" fill="none" xmlns="http://www.w3.org/2000/svg">
<mask id="mask0_4577_34946" style="mask-type:alpha" maskUnits="userSpaceOnUse" x="0" y="0" width="20" height="20">
<rect width="20" height="20" fill="#D9D9D9"/>
</mask>
<g mask="url(#mask0_4577_34946)">
<path d="M8.75001 12.4998H11.25L10.7708 9.81234C11.0486 9.67345 11.2674 9.47206 11.4271 9.20817C11.5868 8.94428 11.6667 8.65262 11.6667 8.33317C11.6667 7.87484 11.5035 7.48248 11.1771 7.15609C10.8507 6.8297 10.4583 6.6665 10 6.6665C9.54168 6.6665 9.14932 6.8297 8.82293 7.15609C8.49654 7.48248 8.33334 7.87484 8.33334 8.33317C8.33334 8.65262 8.4132 8.94428 8.57293 9.20817C8.73265 9.47206 8.9514 9.67345 9.22918 9.81234L8.75001 12.4998ZM10 18.3332C8.06945 17.8471 6.4757 16.7394 5.21876 15.0103C3.96182 13.2811 3.33334 11.3609 3.33334 9.24984V4.1665L10 1.6665L16.6667 4.1665V9.24984C16.6667 11.3609 16.0382 13.2811 14.7813 15.0103C13.5243 16.7394 11.9306 17.8471 10 18.3332ZM10 16.5832C11.4445 16.1248 12.6389 15.2082 13.5833 13.8332C14.5278 12.4582 15 10.9304 15 9.24984V5.31234L10 3.43734L5.00001 5.31234V9.24984C5.00001 10.9304 5.47223 12.4582 6.41668 13.8332C7.36112 15.2082 8.55557 16.1248 10 16.5832Z" fill="#6B6B6B"/>
</g>
</svg>
