<svg width="60" height="60" viewBox="0 0 60 60" fill="none" xmlns="http://www.w3.org/2000/svg">
<rect width="60" height="60" rx="30" fill="#A5F3C0"/>
<g clip-path="url(#clip0_4582_36842)">
<circle cx="30" cy="30" r="16.275" stroke="#18AC4C" stroke-width="2.55"/>
<path d="M26.9303 34.1408L22.9329 30.1434C22.8284 30.0376 22.7039 29.9536 22.5667 29.8963C22.4294 29.839 22.2822 29.8094 22.1335 29.8094C21.9847 29.8094 21.8375 29.839 21.7002 29.8963C21.563 29.9536 21.4385 30.0376 21.334 30.1434C21.2282 30.248 21.1442 30.3724 21.0869 30.5097C21.0295 30.6469 21 30.7942 21 30.9429C21 31.0916 21.0295 31.2389 21.0869 31.3761C21.1442 31.5134 21.2282 31.6378 21.334 31.7424L26.1194 36.5278C26.5648 36.9732 27.2843 36.9732 27.7298 36.5278L39.836 24.4329C39.9418 24.3284 40.0258 24.2039 40.0831 24.0667C40.1405 23.9294 40.17 23.7822 40.17 23.6335C40.17 23.4847 40.1405 23.3375 40.0831 23.2002C40.0258 23.063 39.9418 22.9385 39.836 22.834C39.7315 22.7282 39.607 22.6442 39.4698 22.5869C39.3325 22.5295 39.1853 22.5 39.0365 22.5C38.8878 22.5 38.7406 22.5295 38.6033 22.5869C38.4661 22.6442 38.3416 22.7282 38.2371 22.834L26.9303 34.1408Z" fill="#18AC4C"/>
</g>
<defs>
<clipPath id="clip0_4582_36842">
<rect width="36" height="36" fill="white" transform="translate(12 12)"/>
</clipPath>
</defs>
</svg>
